<svg xmlns="http://www.w3.org/2000/svg" viewBox="0 0 40 40"><filter id="f" x="-10%" y="-40%" width="120%" height="180%"><feTurbulence type="fractalNoise" baseFrequency="0.12 0.12" numOctaves="2" seed="10"/><feDisplacementMap in="SourceGraphic" scale="1.6" xChannelSelector="R" yChannelSelector="G"/></filter><g filter="url(#f)" fill="none" stroke="#000" stroke-linecap="round" stroke-linejoin="round"><path d="M11.5 7.5l1.7 2 1.7 2 1.6 2 1.7 1.9 1.6 1.8 1.6 1.8 1.7 1.7 1.6 1.6 1.4 1.8" stroke-width="2.1" stroke-opacity="0.6"/><path d="M10.8 8.1l1.7 2 1.6 2 1.7 2 1.6 1.9 1.7 1.8 1.6 1.8 1.7 1.7 1.6 1.7 1.5 1.7" stroke-width="2.2" stroke-opacity="0.8"/><path d="M10.4 8.5l1.6 2 1.7 2 1.7 2 1.6 1.9 1.7 1.8 1.6 1.8 1.7 1.7 1.6 1.7 1.6 1.7 1.6 1.6 1.5 1.6 1.6 1.6" stroke-width="2.1" stroke-opacity="0.8"/><path d="M9.6 9.1l1.6 2.1 1.7 2 1.7 1.9 1.6 2 1.7 1.8 1.7 1.8 1.6 1.8 1.7 1.6 1.7 1.6 1.7 1.6 1.6 1.4 1.7 1.5 1.7 1.4" stroke-width="2.6" stroke-opacity="0.9"/><path d="M9.1 9.5l1.6 2.1 1.7 2 1.7 2 1.6 1.9 1.7 1.9 1.7 1.8 1.7 1.7 1.6 1.7 1.8 1.5 1.7 1.5 1.8 1.4 1.7 1.4" stroke-width="2.2" stroke-opacity="0.8"/><path d="M8.4 10.1l1.7 2 1.6 2 1.7 2 1.7 2 1.7 1.8 1.7 1.9 1.7 1.7 1.6 1.7 1.9 1.5" stroke-width="2.4" stroke-opacity="0.8"/><path d="M7.9 10.5l1.7 2 1.6 2.1 1.7 1.9 1.7 2 1.7 1.9 1.7 1.8 1.7 1.8 1.7 1.7 1.9 1.4 1.9 1.3" stroke-width="2" stroke-opacity="0.6"/><path d="M33 11.5l-1.7 2 -1.7 2 -1.8 1.9 -1.8 1.9 -1.7 1.8 -1.8 1.7 -1.7 1.7 -1.8 1.7 -2 1.3 -2 1.3" stroke-width="1.9" stroke-opacity="0.6"/><path d="M32.4 10.9l-1.8 2 -1.7 2 -1.8 1.9 -1.7 1.8 -1.8 1.9 -1.7 1.7 -1.8 1.7 -1.7 1.6 -1.9 1.4 -1.9 1.4 -1.9 1.2" stroke-width="2.5" stroke-opacity="0.7"/><path d="M32 10.6l-1.8 2 -1.7 1.9 -1.7 1.9 -1.8 1.9 -1.7 1.8 -1.8 1.7 -1.7 1.7 -1.8 1.6 -1.8 1.5 -1.8 1.4 -1.9 1.3 -1.8 1.3" stroke-width="2.2" stroke-opacity="0.8"/><path d="M31.3 10l-1.8 1.9 -1.7 2 -1.7 1.9 -1.8 1.8 -1.7 1.8 -1.7 1.7 -1.8 1.7 -1.7 1.6 -1.7 1.6 -1.8 1.4 -1.7 1.5 -1.7 1.4 -1.8 1.3" stroke-width="2.6" stroke-opacity="1"/><path d="M30.6 9.4l-1.7 2 -1.8 1.9 -1.7 1.9 -1.7 1.8 -1.7 1.8 -1.8 1.7 -1.7 1.7 -1.7 1.6 -1.6 1.6 -1.7 1.6 -1.6 1.5 -1.7 1.5 -1.6 1.5" stroke-width="2.2" stroke-opacity="0.8"/><path d="M30.2 9l-1.7 2 -1.8 1.9 -1.7 1.9 -1.7 1.8 -1.7 1.8 -1.7 1.7 -1.8 1.7 -1.7 1.6 -1.6 1.6 -1.5 1.6" stroke-width="1.9" stroke-opacity="0.7"/><path d="M29.4 8.3l-1.7 2 -1.8 1.9 -1.7 1.9 -1.7 1.8 -1.7 1.8 -1.7 1.7 -1.7 1.6 -1.7 1.6 -1.5 1.7 -1.4 1.8 -1.5 1.7" stroke-width="1.7" stroke-opacity="0.5"/></g></svg>
